<svg width="77" height="98" viewBox="0 0 77 98" fill="none" xmlns="http://www.w3.org/2000/svg">
<g clip-path="url(#clip0_1_137)">
<path d="M43.3333 39.36V9.33333C43.3333 7.56522 42.6309 5.86953 41.3807 4.61929C40.1305 3.36904 38.4348 2.66666 36.6667 2.66666C34.8985 2.66666 33.2029 3.36904 31.9526 4.61929C30.7024 5.86953 30 7.56522 30 9.33333V39.36C27.8594 40.7902 26.2355 42.871 25.3682 45.2949C24.5008 47.7189 24.436 50.3575 25.1833 52.8211C25.9306 55.2847 27.4504 57.4426 29.5182 58.9762C31.586 60.5098 34.0922 61.3378 36.6667 61.3378C39.2411 61.3378 41.7473 60.5098 43.8151 58.9762C45.8829 57.4426 47.4027 55.2847 48.15 52.8211C48.8973 50.3575 48.8325 47.7189 47.9651 45.2949C47.0978 42.871 45.4739 40.7902 43.3333 39.36Z" stroke="black" stroke-width="5.33333" stroke-linecap="round" stroke-linejoin="round"/>
</g>
<path d="M0.533621 78.7H10.3186V81.208H6.72762V92H4.10562V81.208H0.533621V78.7ZM19.1768 88.257H12.0138C12.3304 89.4477 13.2234 90.043 14.6928 90.043C15.6301 90.043 16.3394 89.7263 16.8208 89.093L18.7968 90.233C17.8594 91.5883 16.4788 92.266 14.6548 92.266C13.0841 92.266 11.8238 91.791 10.8738 90.841C9.92378 89.891 9.44878 88.694 9.44878 87.25C9.44878 85.8313 9.91744 84.6407 10.8548 83.678C11.7794 82.7153 12.9828 82.234 14.4648 82.234C15.8708 82.234 17.0171 82.7153 17.9038 83.678C18.8158 84.6407 19.2718 85.8313 19.2718 87.25C19.2718 87.516 19.2401 87.8517 19.1768 88.257ZM11.9758 86.357H16.8208C16.6814 85.7363 16.3964 85.2613 15.9658 84.932C15.5478 84.6027 15.0474 84.438 14.4648 84.438C13.8061 84.438 13.2614 84.609 12.8308 84.951C12.4001 85.2803 12.1151 85.749 11.9758 86.357ZM31.4898 82.234C32.5792 82.234 33.4468 82.5887 34.0928 83.298C34.7515 84.0073 35.0808 84.9573 35.0808 86.148V92H32.6298V86.319C32.6298 85.749 32.4905 85.3057 32.2118 84.989C31.9332 84.6723 31.5405 84.514 31.0338 84.514C30.4765 84.514 30.0395 84.6977 29.7228 85.065C29.4188 85.4323 29.2668 85.9643 29.2668 86.661V92H26.8158V86.319C26.8158 85.749 26.6765 85.3057 26.3978 84.989C26.1192 84.6723 25.7265 84.514 25.2198 84.514C24.6751 84.514 24.2381 84.704 23.9088 85.084C23.5921 85.4513 23.4338 85.977 23.4338 86.661V92H20.9828V82.5H23.4338V83.507C24.0038 82.6583 24.8842 82.234 26.0748 82.234C27.2528 82.234 28.1142 82.69 28.6588 83.602C29.2795 82.69 30.2232 82.234 31.4898 82.234ZM42.6915 82.234C43.9708 82.234 45.0602 82.7217 45.9595 83.697C46.8715 84.6723 47.3275 85.8567 47.3275 87.25C47.3275 88.6687 46.8715 89.8593 45.9595 90.822C45.0728 91.7847 43.9835 92.266 42.6915 92.266C41.3615 92.266 40.3355 91.8037 39.6135 90.879V95.8H37.1625V82.5H39.6135V83.621C40.3355 82.6963 41.3615 82.234 42.6915 82.234ZM40.3545 89.188C40.8485 89.682 41.4755 89.929 42.2355 89.929C42.9955 89.929 43.6225 89.682 44.1165 89.188C44.6232 88.6813 44.8765 88.0353 44.8765 87.25C44.8765 86.4647 44.6232 85.825 44.1165 85.331C43.6225 84.8243 42.9955 84.571 42.2355 84.571C41.4755 84.571 40.8485 84.8243 40.3545 85.331C39.8605 85.825 39.6135 86.4647 39.6135 87.25C39.6135 88.0353 39.8605 88.6813 40.3545 89.188ZM54.3381 82.234C55.3894 82.234 56.2444 82.5823 56.9031 83.279C57.5871 83.9883 57.9291 84.951 57.9291 86.167V92H55.4781V86.471C55.4781 85.8503 55.3071 85.369 54.9651 85.027C54.6357 84.685 54.1797 84.514 53.5971 84.514C52.9511 84.514 52.4381 84.7167 52.0581 85.122C51.6907 85.5147 51.5071 86.0973 51.5071 86.87V92H49.0561V78.7H51.5071V83.564C52.0897 82.6773 53.0334 82.234 54.3381 82.234ZM69.2559 88.257H62.0929C62.4095 89.4477 63.3025 90.043 64.7719 90.043C65.7092 90.043 66.4185 89.7263 66.8999 89.093L68.8759 90.233C67.9385 91.5883 66.5579 92.266 64.7339 92.266C63.1632 92.266 61.9029 91.791 60.9529 90.841C60.0029 89.891 59.5279 88.694 59.5279 87.25C59.5279 85.8313 59.9965 84.6407 60.9339 83.678C61.8585 82.7153 63.0619 82.234 64.5439 82.234C65.9499 82.234 67.0962 82.7153 67.9829 83.678C68.8949 84.6407 69.3509 85.8313 69.3509 87.25C69.3509 87.516 69.3192 87.8517 69.2559 88.257ZM62.0549 86.357H66.8999C66.7605 85.7363 66.4755 85.2613 66.0449 84.932C65.6269 84.6027 65.1265 84.438 64.5439 84.438C63.8852 84.438 63.3405 84.609 62.9099 84.951C62.4792 85.2803 62.1942 85.749 62.0549 86.357ZM73.5129 82.5V84.134C73.7283 83.5387 74.0956 83.089 74.6149 82.785C75.1343 82.4683 75.7296 82.31 76.4009 82.31V85.046C75.6536 84.9447 74.9823 85.0967 74.3869 85.502C73.8043 85.8947 73.5129 86.547 73.5129 87.459V92H71.0619V82.5H73.5129Z" fill="black"/>
<defs>
<clipPath id="clip0_1_137">
<rect width="64" height="64" fill="white" transform="translate(6)"/>
</clipPath>
</defs>
</svg>
