<svg width="101" height="33" viewBox="0 0 101 33" fill="none" xmlns="http://www.w3.org/2000/svg">
<path d="M10.6667 19.68V4.66668C10.6667 3.78262 10.3155 2.93478 9.69037 2.30965C9.06525 1.68453 8.2174 1.33334 7.33334 1.33334C6.44929 1.33334 5.60144 1.68453 4.97632 2.30965C4.3512 2.93478 4.00001 3.78262 4.00001 4.66668V19.68C2.92971 20.3951 2.11777 21.4355 1.68411 22.6475C1.25044 23.8594 1.21804 25.1787 1.59169 26.4105C1.96534 27.6423 2.72522 28.7213 3.75913 29.4881C4.79303 30.2549 6.04612 30.6689 7.33334 30.6689C8.62056 30.6689 9.87366 30.2549 10.9076 29.4881C11.9415 28.7213 12.7014 27.6423 13.075 26.4105C13.4487 25.1787 13.4162 23.8594 12.9826 22.6475C12.5489 21.4355 11.737 20.3951 10.6667 19.68Z" stroke="black" stroke-width="2.66667" stroke-linecap="round" stroke-linejoin="round"/>
<path d="M24.247 7.7H34.032V10.208H30.441V21H27.819V10.208H24.247V7.7ZM42.8902 17.257H35.7272C36.0438 18.4477 36.9368 19.043 38.4062 19.043C39.3435 19.043 40.0528 18.7263 40.5342 18.093L42.5102 19.233C41.5728 20.5883 40.1922 21.266 38.3682 21.266C36.7975 21.266 35.5372 20.791 34.5872 19.841C33.6372 18.891 33.1622 17.694 33.1622 16.25C33.1622 14.8313 33.6308 13.6407 34.5682 12.678C35.4928 11.7153 36.6962 11.234 38.1782 11.234C39.5842 11.234 40.7305 11.7153 41.6172 12.678C42.5292 13.6407 42.9852 14.8313 42.9852 16.25C42.9852 16.516 42.9535 16.8517 42.8902 17.257ZM35.6892 15.357H40.5342C40.3948 14.7363 40.1098 14.2613 39.6792 13.932C39.2612 13.6027 38.7608 13.438 38.1782 13.438C37.5195 13.438 36.9748 13.609 36.5442 13.951C36.1135 14.2803 35.8285 14.749 35.6892 15.357ZM55.2032 11.234C56.2925 11.234 57.1602 11.5887 57.8062 12.298C58.4649 13.0073 58.7942 13.9573 58.7942 15.148V21H56.3432V15.319C56.3432 14.749 56.2039 14.3057 55.9252 13.989C55.6465 13.6723 55.2539 13.514 54.7472 13.514C54.1899 13.514 53.7529 13.6977 53.4362 14.065C53.1322 14.4323 52.9802 14.9643 52.9802 15.661V21H50.5292V15.319C50.5292 14.749 50.3899 14.3057 50.1112 13.989C49.8325 13.6723 49.4399 13.514 48.9332 13.514C48.3885 13.514 47.9515 13.704 47.6222 14.084C47.3055 14.4513 47.1472 14.977 47.1472 15.661V21H44.6962V11.5H47.1472V12.507C47.7172 11.6583 48.5975 11.234 49.7882 11.234C50.9662 11.234 51.8275 11.69 52.3722 12.602C52.9929 11.69 53.9365 11.234 55.2032 11.234ZM66.4049 11.234C67.6842 11.234 68.7736 11.7217 69.6729 12.697C70.5849 13.6723 71.0409 14.8567 71.0409 16.25C71.0409 17.6687 70.5849 18.8593 69.6729 19.822C68.7862 20.7847 67.6969 21.266 66.4049 21.266C65.0749 21.266 64.0489 20.8037 63.3269 19.879V24.8H60.8759V11.5H63.3269V12.621C64.0489 11.6963 65.0749 11.234 66.4049 11.234ZM64.0679 18.188C64.5619 18.682 65.1889 18.929 65.9489 18.929C66.7089 18.929 67.3359 18.682 67.8299 18.188C68.3365 17.6813 68.5899 17.0353 68.5899 16.25C68.5899 15.4647 68.3365 14.825 67.8299 14.331C67.3359 13.8243 66.7089 13.571 65.9489 13.571C65.1889 13.571 64.5619 13.8243 64.0679 14.331C63.5739 14.825 63.3269 15.4647 63.3269 16.25C63.3269 17.0353 63.5739 17.6813 64.0679 18.188ZM78.0514 11.234C79.1028 11.234 79.9578 11.5823 80.6164 12.279C81.3004 12.9883 81.6424 13.951 81.6424 15.167V21H79.1914V15.471C79.1914 14.8503 79.0204 14.369 78.6784 14.027C78.3491 13.685 77.8931 13.514 77.3104 13.514C76.6644 13.514 76.1514 13.7167 75.7714 14.122C75.4041 14.5147 75.2204 15.0973 75.2204 15.87V21H72.7694V7.7H75.2204V12.564C75.8031 11.6773 76.7468 11.234 78.0514 11.234ZM92.9693 17.257H85.8063C86.1229 18.4477 87.0159 19.043 88.4853 19.043C89.4226 19.043 90.1319 18.7263 90.6133 18.093L92.5893 19.233C91.6519 20.5883 90.2713 21.266 88.4473 21.266C86.8766 21.266 85.6163 20.791 84.6663 19.841C83.7163 18.891 83.2413 17.694 83.2413 16.25C83.2413 14.8313 83.7099 13.6407 84.6473 12.678C85.5719 11.7153 86.7753 11.234 88.2573 11.234C89.6633 11.234 90.8096 11.7153 91.6963 12.678C92.6083 13.6407 93.0643 14.8313 93.0643 16.25C93.0643 16.516 93.0326 16.8517 92.9693 17.257ZM85.7683 15.357H90.6133C90.4739 14.7363 90.1889 14.2613 89.7583 13.932C89.3403 13.6027 88.8399 13.438 88.2573 13.438C87.5986 13.438 87.0539 13.609 86.6233 13.951C86.1926 14.2803 85.9076 14.749 85.7683 15.357ZM97.2263 11.5V13.134C97.4416 12.5387 97.809 12.089 98.3283 11.785C98.8476 11.4683 99.443 11.31 100.114 11.31V14.046C99.367 13.9447 98.6956 14.0967 98.1003 14.502C97.5176 14.8947 97.2263 15.547 97.2263 16.459V21H94.7753V11.5H97.2263Z" fill="black"/>
</svg>
